<?xml version="1.0" encoding="utf-8"?>
<!-- Generator: Adobe Illustrator 20.1.0, SVG Export Plug-In . SVG Version: 6.00 Build 0)  -->
<svg version="1.1" id="Lag_1" xmlns="http://www.w3.org/2000/svg" xmlns:xlink="http://www.w3.org/1999/xlink" x="0px" y="0px"
	 viewBox="0 0 100 100" style="enable-background:new 0 0 100 100;" xml:space="preserve">
<style type="text/css">
	.st0{fill:#D5DEE2;}
</style>
<path class="st0" d="M5.4,32c-1.1,0.2-1.9,1.2-1.7,2.3S4.9,36.2,6,36h8c0.7,0,1.4-0.4,1.8-1c0.4-0.6,0.4-1.4,0-2c-0.4-0.6-1-1-1.8-1
	H6c-0.1,0-0.1,0-0.2,0s-0.1,0-0.2,0S5.5,32,5.4,32z"/>
<path class="st0" d="M23.4,32c-1.1,0.2-1.9,1.2-1.7,2.3s1.2,1.9,2.3,1.7h48c0.7,0,1.4-0.4,1.8-1c0.4-0.6,0.4-1.4,0-2
	c-0.4-0.6-1-1-1.8-1H24c-0.1,0-0.1,0-0.2,0s-0.1,0-0.2,0S23.5,32,23.4,32z"/>
<circle class="st0" cx="88" cy="34" r="2"/>
<circle class="st0" cx="94" cy="34" r="2"/>
<path class="st0" d="M5.4,48c-1.1,0.2-1.9,1.2-1.7,2.3S4.9,52.2,6,52h8c0.7,0,1.4-0.4,1.8-1c0.4-0.6,0.4-1.4,0-2c-0.4-0.6-1-1-1.8-1
	H6c-0.1,0-0.1,0-0.2,0s-0.1,0-0.2,0S5.5,48,5.4,48z"/>
<path class="st0" d="M23.4,48c-1.1,0.2-1.9,1.2-1.7,2.3s1.2,1.9,2.3,1.7h48c0.7,0,1.4-0.4,1.8-1c0.4-0.6,0.4-1.4,0-2
	c-0.4-0.6-1-1-1.8-1H24c-0.1,0-0.1,0-0.2,0s-0.1,0-0.2,0S23.5,48,23.4,48z"/>
<circle class="st0" cx="82" cy="50" r="2"/>
<circle class="st0" cx="88" cy="50" r="2"/>
<circle class="st0" cx="94" cy="50" r="2"/>
<path class="st0" d="M5.4,64c-1.1,0.2-1.9,1.2-1.7,2.3S4.9,68.2,6,68h8c0.7,0,1.4-0.4,1.8-1c0.4-0.6,0.4-1.4,0-2c-0.4-0.6-1-1-1.8-1
	H6c-0.1,0-0.1,0-0.2,0s-0.1,0-0.2,0S5.5,64,5.4,64z"/>
<path class="st0" d="M23.4,64c-1.1,0.2-1.9,1.2-1.7,2.3s1.2,1.9,2.3,1.7h48c0.7,0,1.4-0.4,1.8-1c0.4-0.6,0.4-1.4,0-2
	c-0.4-0.6-1-1-1.8-1H24c-0.1,0-0.1,0-0.2,0s-0.1,0-0.2,0S23.5,64,23.4,64z"/>
<circle class="st0" cx="88" cy="66" r="2"/>
<circle class="st0" cx="94" cy="66" r="2"/>
</svg>
