<?xml version="1.0" encoding="utf-8"?>
<!-- Svg Vector Icons : http://www.onlinewebfonts.com/icon -->
<!DOCTYPE svg PUBLIC "-//W3C//DTD SVG 1.1//EN" "http://www.w3.org/Graphics/SVG/1.1/DTD/svg11.dtd">
<svg version="1.1" xmlns="http://www.w3.org/2000/svg" xmlns:xlink="http://www.w3.org/1999/xlink" x="0px" y="0px" viewBox="0 0 1000 1000" enable-background="new 0 0 1000 1000" xml:space="preserve">
<metadata> Svg Vector Icons : http://www.onlinewebfonts.com/icon </metadata>
<g><path d="M401.2,82.6c173.3,0,314.3,141,314.3,314.3c0,173.3-141,314.3-314.3,314.3c-173.3,0-314.3-141-314.3-314.3C86.9,223.6,227.9,82.6,401.2,82.6 M401.2,5.7C185.2,5.7,10,180.9,10,396.9s175.2,391.2,391.2,391.2c216.1,0,391.2-175.2,391.2-391.2S617.3,5.7,401.2,5.7L401.2,5.7z"/><path d="M951.5,994.3c-9.9,0-19.8-3.8-27.3-11.4L629.3,685.1c-15-15.1-14.8-39.4,0.3-54.4c15.1-15,39.4-14.8,54.4,0.3l294.9,297.8c15,15.1,14.8,39.4-0.3,54.4C971.1,990.6,961.3,994.3,951.5,994.3z"/></g>
</svg>